<svg xmlns="http://www.w3.org/2000/svg" xmlns:svg="http://www.w3.org/2000/svg" xmlns:xlink="http://www.w3.org/1999/xlink" id="svg3133" width="90" height="90" version="1.1"><defs id="defs3135"><linearGradient id="linearGradient3803"><stop id="stop3805" offset="0" stop-color="#e7e5e5" stop-opacity="1"/><stop id="stop3807" offset="1" stop-color="#e2dfdf" stop-opacity="1"/></linearGradient><linearGradient id="linearGradient3809" x1="53.012" x2="53.012" y1="-102.79" y2="-66.661" gradientUnits="userSpaceOnUse" xlink:href="#linearGradient3803"/><linearGradient id="linearGradient3813" x1="53.012" x2="53.012" y1="-102.79" y2="-66.661" gradientTransform="translate(-625,0)" gradientUnits="userSpaceOnUse" xlink:href="#linearGradient3803"/></defs><metadata id="metadata3138"/><g id="layer1" display="inline" transform="translate(-2.98e-6,-962.36219)"><g id="g3842" display="inline" transform="matrix(0.99934414,0,0,1,-106.92982,549.00002)"><rect id="rect3844" width="90.059" height="90" x="107" y="-503.362" fill="none" stroke="none" stroke-width="2" color="#000" display="inline" enable-background="accumulate" opacity=".05" overflow="visible" transform="scale(1,-1)" visibility="visible" style="marker:none"/><path id="path2995" fill="none" stroke="gray" stroke-width="9.5" d="m 68.999996,36.500011 a 33,33.5 0 1 1 -65.9999998,0 33,33.5 0 1 1 65.9999998,0 z" color="#000" display="inline" enable-background="accumulate" overflow="visible" transform="matrix(0.9551718,0,0,0.94029844,108.63744,415.04128)" visibility="visible" style="marker:none"/><path id="path3765" fill="gray" fill-opacity="1" stroke="none" stroke-width="6" d="m 168.16512,470.23717 -4.25279,4.25 21.01378,21 4.25279,-4.25 -21.01378,-21 z" baseline-shift="baseline" color="#000" direction="ltr" display="inline" enable-background="accumulate" font-family="Sans" font-size="medium" font-stretch="normal" font-style="normal" font-variant="normal" font-weight="normal" letter-spacing="normal" overflow="visible" text-anchor="start" text-decoration="none" visibility="visible" word-spacing="normal" writing-mode="lr-tb" style="text-indent:0;text-align:start;line-height:normal;text-transform:none;block-progression:tb;marker:none;-inkscape-font-specification:Sans"/><path id="path3767" fill="gray" fill-opacity="1" stroke="none" stroke-width="11.804" d="m 175.96875,476.40625 c -2.32437,0.012 -4.57033,1.53501 -5.44162,3.68994 -0.87128,2.15492 -0.31496,4.81092 1.34787,6.43506 l 13.7996,13.79991 c 4.02735,4.27401 4.89575,3.69726 8.46955,0.1258 3.57381,-3.57146 4.15747,-4.18909 -0.1258,-8.46955 l -13.7996,-13.79991 c -1.10179,-1.12969 -2.672,-1.78779 -4.25,-1.78125 z" baseline-shift="baseline" color="#000" direction="ltr" display="inline" enable-background="accumulate" font-family="Sans" font-size="medium" font-stretch="normal" font-style="normal" font-variant="normal" font-weight="normal" letter-spacing="normal" overflow="visible" text-anchor="start" text-decoration="none" visibility="visible" word-spacing="normal" writing-mode="lr-tb" style="text-indent:0;text-align:start;line-height:normal;text-transform:none;block-progression:tb;marker:none;-inkscape-font-specification:Sans"/></g></g></svg>