<svg xmlns="http://www.w3.org/2000/svg" xmlns:xlink="http://www.w3.org/1999/xlink" width="32" height="32" version="1.1" viewBox="0 0 32 32"><defs id="defs5455"><linearGradient id="linearGradient4207"><stop id="stop4209" stop-color="#814b13"/><stop id="stop4211" offset="1" stop-color="#9d5b17"/></linearGradient><linearGradient id="linearGradient4143"><stop id="stop4145" stop-color="#fdc95f"/><stop id="stop4147" offset="1" stop-color="#fdd583"/></linearGradient><linearGradient id="linearGradient4149" x2="0" y1="545.798" y2="517.798" gradientTransform="matrix(1 0 0 1 -0.000017 0.000013)" gradientUnits="userSpaceOnUse" xlink:href="#linearGradient4143"/><linearGradient id="linearGradient4213" x2="0" y1="538.798" y2="534.798" gradientUnits="userSpaceOnUse" xlink:href="#linearGradient4207"/><linearGradient id="linearGradient4221" x2="0" y1="528.798" y2="524.798" gradientUnits="userSpaceOnUse" xlink:href="#linearGradient4207"/></defs><metadata id="metadata5458"/><g id="layer1" transform="matrix(1 0 0 1 -384.57143 -515.798)"><rect id="rect4130" width="28" height="28" x="386.571" y="517.798" fill="url(#linearGradient4149)" rx="14" ry="14"/><ellipse id="path4184" cx="395.571" cy="526.798" fill="url(#linearGradient4221)" stroke-width="5.039" rx="2" ry="2"/><ellipse id="circle4186" cx="405.572" cy="526.798" fill="url(#linearGradient4221)" stroke-width="5.039" rx="2" ry="2"/><path id="path4229" fill="url(#linearGradient4213)" stroke-width="1.231" d="m 395.24526,535.10422 a 6.1562779,7.3875605 0 0 0 5.32662,3.69378 6.1562779,7.3875605 0 0 0 5.32182,-3.69378 l -0.7479,0 a 6.1562779,7.3875605 0 0 1 -4.57392,2.46253 6.1562779,7.3875605 0 0 1 -4.57633,-2.46253 l -0.75029,0 z"/></g></svg>