<svg xmlns="http://www.w3.org/2000/svg" xmlns:xlink="http://www.w3.org/1999/xlink" width="32" height="32" version="1.1"><defs id="defs5455"><linearGradient id="linearGradient4149" x2="0" y1="545.798" y2="517.798" gradientUnits="userSpaceOnUse" xlink:href="#linearGradient4435"/><linearGradient id="linearGradient4390"><stop id="stop4392" stop-color="#f7abb2"/><stop id="stop4394" offset="1" stop-color="#f9dce0"/></linearGradient><linearGradient id="linearGradient4435"><stop id="stop4437" stop-color="#c61423"/><stop id="stop4439" offset="1" stop-color="#dc2b41"/></linearGradient><linearGradient id="linearGradient4189" x2="0" y1="23" y2="9" gradientUnits="userSpaceOnUse" xlink:href="#linearGradient4390"/><linearGradient id="linearGradient4231" x1="9" x2="25" y1="8" y2="24" gradientUnits="userSpaceOnUse" xlink:href="#linearGradient4227"/><linearGradient id="linearGradient4227"><stop id="stop4229" stop-color="#292c2f"/><stop id="stop4231" offset="1" stop-opacity="0"/></linearGradient></defs><metadata id="metadata5458"/><g id="layer1" transform="matrix(1 0 0 1 -384.57143 -515.798)"><rect id="rect4130" width="28" height="28" x="386.571" y="517.798" fill="url(#linearGradient4149)" rx="14"/><path id="rect4215" fill="url(#linearGradient4231)" d="M 17 9 L 17 16 L 15 16 L 19.712891 20.712891 A 6 6 0 0 1 16 22 A 6 6 0 0 1 11.759766 20.240234 L 11.050781 20.949219 L 19.615234 29.515625 C 24.449991 28.233408 28.233408 24.449991 29.515625 19.615234 L 20.949219 11.050781 L 20.240234 11.759766 A 6 6 0 0 1 21.394531 13.394531 L 17 9 z" opacity=".2" transform="matrix(1 0 0 1 384.57143 515.798)"/><path id="path4169" fill="url(#linearGradient4189)" d="M 15 9 L 15 16 L 17 16 L 17 9 L 15 9 z M 14 9.2949219 A 6.9999866 6.9999866 0 0 0 9 16 A 6.9999866 6.9999866 0 0 0 16 23 A 6.9999866 6.9999866 0 0 0 23 16 A 6.9999866 6.9999866 0 0 0 18 9.2988281 L 18 10.349609 A 5.9999866 5.9999866 0 0 1 22 16 A 5.9999866 5.9999866 0 0 1 16 22 A 5.9999866 5.9999866 0 0 1 10 16 A 5.9999866 5.9999866 0 0 1 14 10.349609 L 14 9.2949219 z" transform="matrix(1 0 0 1 384.57143 515.798)"/></g></svg>