<svg xmlns="http://www.w3.org/2000/svg" xmlns:svg="http://www.w3.org/2000/svg" xmlns:xlink="http://www.w3.org/1999/xlink" id="svg2" width="48" height="48" version="1.1"><defs id="defs5455"><linearGradient id="linearGradient4406"><stop id="stop4408" offset="0" stop-color="#2a3561" stop-opacity="1"/><stop id="stop4410" offset="1" stop-color="#192656" stop-opacity="1"/></linearGradient><linearGradient id="linearGradient4262"><stop id="stop4264" offset="0" stop-color="#fff" stop-opacity=".573"/><stop id="stop4266" offset="1" stop-color="#fff" stop-opacity="0"/></linearGradient><linearGradient id="linearGradient4256"><stop id="stop4258" stop-color="#3e5172" stop-opacity="1"/><stop id="stop4260" offset="1" stop-color="#6f7da0" stop-opacity="1"/></linearGradient><linearGradient id="linearGradient4250"><stop id="stop4252" stop-color="#000" stop-opacity="1"/><stop id="stop4254" offset="1" stop-color="#655c6f" stop-opacity="0"/></linearGradient><linearGradient id="linearGradient4244"><stop id="stop4246" offset="0" stop-color="#363d68" stop-opacity="1"/><stop id="stop4248" offset="1" stop-color="#5272a2" stop-opacity=".427"/></linearGradient><linearGradient id="linearGradient4238"><stop id="stop4240" offset="0" stop-color="#0b084e" stop-opacity="1"/><stop id="stop4242" offset="1" stop-color="#e88f21" stop-opacity="0"/></linearGradient><linearGradient id="linearGradient4232"><stop id="stop4234" stop-color="#1d1d5b" stop-opacity="1"/><stop id="stop4236" offset="1" stop-color="#1f4778" stop-opacity="1"/></linearGradient><linearGradient id="linearGradient4351-5"><stop id="stop4353-1" stop-color="#fddda3"/><stop id="stop4355-8" offset="1" stop-color="#fde3a7"/></linearGradient><style id="current-color-scheme" type="text/css"/><linearGradient id="linearGradient3397" x1="406.571" x2="429.121" y1="538.798" y2="507.52" gradientTransform="matrix(-1.81818,0,0,1.2468988,1167.7915,-128.02859)" gradientUnits="userSpaceOnUse" xlink:href="#linearGradient4232"/><linearGradient id="linearGradient3399" x1="433.321" x2="382.571" y1="-516.298" y2="-498.048" gradientUnits="userSpaceOnUse" xlink:href="#linearGradient4244"/><linearGradient id="linearGradient3401" x1="46" x2="45.75" y1="61.25" y2="49.25" gradientTransform="matrix(-1,0,0,1,442.57143,482.798)" gradientUnits="userSpaceOnUse" xlink:href="#linearGradient4256"/><linearGradient id="linearGradient3403" x1="52.625" x2="41.375" y1="23.375" y2="13.25" gradientTransform="matrix(-1,0,0,-1,456.57143,560.79801)" gradientUnits="userSpaceOnUse" xlink:href="#linearGradient4250"/><linearGradient id="linearGradient3405" x1="393.571" x2="439.571" y1="-504.798" y2="-504.798" gradientUnits="userSpaceOnUse" xlink:href="#linearGradient4262"/><linearGradient id="linearGradient3407" x1="394.571" x2="435.571" y1="-511.798" y2="-511.798" gradientUnits="userSpaceOnUse" xlink:href="#linearGradient4238"/><linearGradient id="linearGradient4412" x1="393.738" x2="393.571" y1="548.893" y2="525.048" gradientUnits="userSpaceOnUse" xlink:href="#linearGradient4406"/></defs><metadata id="metadata5458"/><g id="layer1" transform="matrix(1 0 0 1 -384.57143 -499.798)"><path id="path3379" fill="url(#linearGradient4412)" fill-opacity="1" fill-rule="nonzero" stroke="none" stroke-dasharray="none" stroke-linecap="round" stroke-linejoin="round" stroke-miterlimit="4" stroke-opacity="1" stroke-width="1" d="m 400.57143,543.798 -12,0 4e-5,-12 12.99996,-1 z" color="#000" display="inline" enable-background="accumulate" opacity="1" overflow="visible" visibility="visible" style="marker:none"/><path id="path3381" fill="url(#linearGradient3397)" fill-opacity="1" fill-rule="nonzero" stroke="none" stroke-dasharray="none" stroke-linecap="round" stroke-linejoin="round" stroke-miterlimit="4" stroke-opacity="1" stroke-width="1" d="m 428.57143,503.798 0,40 -27.99996,0 -12,-12 0,-28 z" color="#000" display="inline" enable-background="accumulate" opacity="1" overflow="visible" visibility="visible" style="marker:none"/><rect stroke-width="1" style="isolation:auto;mix-blend-mode:normal;solid-color:#000;solid-opacity:1" id="rect3383" width="40" height="7" x="388.571" y="-510.798" fill="url(#linearGradient3399)" fill-opacity="1" fill-rule="nonzero" stroke="none" stroke-dasharray="none" stroke-dashoffset="0" stroke-linecap="square" stroke-linejoin="miter" stroke-miterlimit="4" stroke-opacity="1" clip-rule="nonzero" color="#4d4d4d" color-interpolation="sRGB" color-interpolation-filters="linearRGB" color-rendering="auto" display="inline" enable-background="accumulate" image-rendering="auto" opacity="1" overflow="visible" shape-rendering="auto" text-rendering="auto" transform="scale(1,-1)" visibility="visible"/><path id="path4225" fill="#8bddff" fill-opacity="1" fill-rule="nonzero" stroke="none" stroke-dasharray="none" stroke-dashoffset="0" stroke-linecap="butt" stroke-linejoin="miter" stroke-miterlimit="4" stroke-opacity="1" stroke-width="1" d="m 408.41058,515.9245 a 6.2216068,6.2216068 0 0 0 -6.22161,6.2216 6.2216068,6.2216068 0 0 0 0.0712,0.89054 4.4440049,4.4440049 0 0 0 -0.0712,-0.002 4.4440049,4.4440049 0 0 0 -4.444,4.44401 4.4440049,4.4440049 0 0 0 4.444,4.444 l 11.55442,0 a 5.3328058,5.3328058 0 0 0 5.3328,-5.33281 5.3328058,5.3328058 0 0 0 -4.50476,-5.26337 6.2216068,6.2216068 0 0 0 -6.16085,-5.40224 z m 0,0.8888 a 5.3328058,5.3328058 0 0 1 0.53294,0.026 5.3328058,5.3328058 0 0 1 2.47718,0.90616 5.3328058,5.3328058 0 0 1 0.002,0 5.3328058,5.3328058 0 0 1 1.16482,1.08496 5.3328058,5.3328058 0 0 1 0,0.002 5.3328058,5.3328058 0 0 1 1.07975,2.42858 5.3328058,5.3328058 0 0 1 0.0763,0.88528 4.4440049,4.4440049 0 0 1 0.88532,0.0885 4.4440049,4.4440049 0 0 1 0.42879,0.10937 4.4440049,4.4440049 0 0 1 0.002,0 4.4440049,4.4440049 0 0 1 0.41489,0.15275 4.4440049,4.4440049 0 0 1 0.002,0 4.4440049,4.4440049 0 0 1 0.39754,0.1927 4.4440049,4.4440049 0 0 1 0.004,0.002 4.4440049,4.4440049 0 0 1 0.37496,0.23088 4.4440049,4.4440049 0 0 1 0.004,0.002 4.4440049,4.4440049 0 0 1 0.35066,0.26734 4.4440049,4.4440049 0 0 1 0.002,0.002 4.4440049,4.4440049 0 0 1 0.3229,0.30031 4.4440049,4.4440049 0 0 1 0.002,0.002 4.4440049,4.4440049 0 0 1 0.5503,0.69438 4.4440049,4.4440049 0 0 1 0.002,0.002 4.4440049,4.4440049 0 0 1 0.21873,0.38365 4.4440049,4.4440049 0 0 1 0.002,0.002 4.4440049,4.4440049 0 0 1 0.18054,0.40274 4.4440049,4.4440049 0 0 1 0.002,0.002 4.4440049,4.4440049 0 0 1 0.13887,0.42011 4.4440049,4.4440049 0 0 1 0,0.002 4.4440049,4.4440049 0 0 1 0.0972,0.43225 4.4440049,4.4440049 0 0 1 0,0.002 4.4440049,4.4440049 0 0 1 0.0538,0.43919 4.4440049,4.4440049 0 0 1 0.0101,0.31383 4.4440049,4.4440049 0 0 1 -4.444,4.444 l -11.55441,0 a 3.5552039,3.5552039 0 0 1 -3.55521,-3.5552 3.5552039,3.5552039 0 0 1 0.0173,-0.35413 3.5552039,3.5552039 0 0 1 3.53785,-3.20107 3.5552039,3.5552039 0 0 1 0.2656,0.0122 3.5552039,3.5552039 0 0 1 0,0.002 3.5552039,3.5552039 0 0 1 1.02768,0.23262 5.3328058,5.3328058 0 0 1 -0.3038,-1.019 5.3328058,5.3328058 0 0 1 -0.0659,-0.45135 5.3328058,5.3328058 0 0 1 -0.0122,-0.10241 5.3328058,5.3328058 0 0 1 -0.0226,-0.45139 5.3328058,5.3328058 0 0 1 0.026,-0.53293 5.3328058,5.3328058 0 0 1 5.30676,-4.79987 z" clip-rule="nonzero" color="#4d4d4d" color-interpolation="sRGB" color-interpolation-filters="linearRGB" color-rendering="auto" display="inline" enable-background="accumulate" image-rendering="auto" opacity=".39" overflow="visible" shape-rendering="auto" text-rendering="auto" visibility="visible" style="isolation:auto;mix-blend-mode:normal;solid-color:#000;solid-opacity:1"/><path id="path3387" fill="url(#linearGradient3401)" fill-rule="evenodd" d="m 388.57143,531.798 12,12 0,-12 z"/><path id="path3389" fill="url(#linearGradient3403)" fill-rule="evenodd" d="m 412.57143,543.798 -12,-12 0,12 z" opacity=".2"/><rect id="rect3391" width="40" height="1" x="388.571" y="-504.798" fill="url(#linearGradient3405)" fill-opacity="1" fill-rule="nonzero" stroke="none" stroke-dasharray="none" stroke-dashoffset="0" stroke-linecap="square" stroke-linejoin="miter" stroke-miterlimit="4" stroke-opacity="1" stroke-width="1" clip-rule="nonzero" color="#4d4d4d" color-interpolation="sRGB" color-interpolation-filters="linearRGB" color-rendering="auto" display="inline" enable-background="accumulate" image-rendering="auto" opacity=".256" overflow="visible" shape-rendering="auto" text-rendering="auto" transform="scale(1,-1)" visibility="visible" style="isolation:auto;mix-blend-mode:normal;solid-color:#000;solid-opacity:1"/><rect stroke-width="1" style="isolation:auto;mix-blend-mode:normal;solid-color:#000;solid-opacity:1" id="rect3393" width="40" height="1" x="388.571" y="-511.798" fill="url(#linearGradient3407)" fill-opacity="1" fill-rule="nonzero" stroke="none" stroke-dasharray="none" stroke-dashoffset="0" stroke-linecap="square" stroke-linejoin="miter" stroke-miterlimit="4" stroke-opacity="1" clip-rule="nonzero" color="#4d4d4d" color-interpolation="sRGB" color-interpolation-filters="linearRGB" color-rendering="auto" display="inline" enable-background="accumulate" image-rendering="auto" opacity=".144" overflow="visible" shape-rendering="auto" text-rendering="auto" transform="scale(1,-1)" visibility="visible"/><rect id="rect4035" width="0" height="14.668" x="325.953" y="434.415" fill="#4d4d4d"/><rect id="rect4035-8" width="0" height="14.668" x="332.914" y="456.985" fill="#4d4d4d"/><rect id="rect4035-0" width="0" height="14.668" x="334.727" y="455.924" fill="#4d4d4d"/><rect id="rect4035-06" width="0" height="14.668" x="308.797" y="430.633" fill="#4d4d4d"/><rect id="rect4035-8-7" width="0" height="14.668" x="315.757" y="453.204" fill="#4d4d4d"/><rect id="rect4035-0-42" width="0" height="14.668" x="317.571" y="452.143" fill="#4d4d4d"/><rect id="rect4035-3" width="0" height="14.668" x="308.797" y="430.633" fill="#4d4d4d"/><rect id="rect4035-8-9" width="0" height="14.668" x="315.757" y="453.204" fill="#4d4d4d"/><rect id="rect4035-0-4" width="0" height="14.668" x="317.571" y="452.143" fill="#4d4d4d"/><rect id="rect4035-2" width="0" height="14.668" x="308.797" y="430.633" fill="#4d4d4d"/><rect id="rect4035-8-99" width="0" height="14.668" x="315.757" y="453.204" fill="#4d4d4d"/><rect id="rect4035-0-43" width="0" height="14.668" x="317.571" y="452.143" fill="#4d4d4d"/><rect id="rect4035-3-9" width="0" height="14.668" x="308.797" y="430.633" fill="#4d4d4d"/><rect id="rect4035-8-9-9" width="0" height="14.668" x="315.757" y="453.204" fill="#4d4d4d"/><rect id="rect4035-0-4-4" width="0" height="14.668" x="317.571" y="452.143" fill="#4d4d4d"/><rect id="rect4035-5" width="0" height="11" x="379.067" y="451.923" fill="#4d4d4d"/><rect id="rect4035-7" width="0" height="11" x="374.515" y="454.442" fill="#4d4d4d"/><rect id="rect4035-9" width="0" height="11" x="370.007" y="442.023" fill="#4d4d4d"/><rect id="rect4035-96" width="0" height="11" x="370.851" y="454.261" fill="#4d4d4d"/><rect id="rect4035-7-0" width="0" height="11" x="366.299" y="456.78" fill="#4d4d4d"/><rect id="rect4035-9-6" width="0" height="11" x="361.791" y="444.361" fill="#4d4d4d"/><rect id="rect4035-1" width="0" height="11" x="379.067" y="451.923" fill="#4d4d4d"/><rect id="rect4035-7-2" width="0" height="11" x="374.515" y="454.442" fill="#4d4d4d"/><rect id="rect4035-9-0" width="0" height="11" x="370.007" y="442.023" fill="#4d4d4d"/><rect id="rect4035-96-9" width="0" height="11" x="370.851" y="454.261" fill="#4d4d4d"/><rect id="rect4035-7-0-9" width="0" height="11" x="366.299" y="456.78" fill="#4d4d4d"/><rect id="rect4035-9-6-9" width="0" height="11" x="361.791" y="444.361" fill="#4d4d4d"/></g></svg>