<svg xmlns="http://www.w3.org/2000/svg" xmlns:svg="http://www.w3.org/2000/svg" id="svg3869" width="24" height="24" version="1.1"><defs id="defs3871"><linearGradient id="linearGradient3257"><stop id="stop3259" offset="0" stop-color="#a50000" stop-opacity="1"/><stop id="stop3261" offset="1" stop-color="#e73800" stop-opacity="1"/></linearGradient></defs><metadata id="metadata3874"/><g id="layer1" transform="translate(-326,-532.3622)"><g id="layer1-6" transform="translate(-274.71428,16.14287)"><path id="rect4147" fill="#4d4d4d" fill-opacity="1" stroke="none" d="m 4,3 0,1 0,13 1,0 2,0 1,0 0,1 0,1 6,0 4,-4 0,-1 L 18,7 18,6 16,6 16,3 15,3 5,3 4,3 Z M 5,4 15,4 15,6 8,6 8,7 8,16 7,16 5,16 5,4 Z m 4,3 8,0 0,7 -3,0 -1,0 0,1 0,3 -4,0 0,-11 z" opacity="1" transform="translate(601.71428,517.21933)"/></g></g></svg>