<svg xmlns="http://www.w3.org/2000/svg" xmlns:svg="http://www.w3.org/2000/svg" id="svg3869" width="24" height="24" version="1.1"><metadata id="metadata3874"/><g id="layer1" transform="translate(-326,-532.3622)"><g id="layer1-8" transform="translate(327,-497)"><g id="g4153"><path id="rect4161" fill="#4d4d4d" fill-opacity="1" stroke="none" d="m 4,17 0,2 1,0 12,0 1,0 0,-2 -1,0 0,1 -12,0 0,-1 -1,0 z" transform="translate(0,1030.3622)"/><path id="rect4167" fill="#4d4d4d" fill-opacity="1" stroke="none" d="M 8,3 8,9 9,9 9,4 13,4 13,9 14,9 14,3 13,3 9,3 8,3 Z" transform="translate(0,1030.3622)"/><path id="path4178" fill="#4d4d4d" fill-opacity="1" fill-rule="evenodd" stroke="none" stroke-dasharray="none" stroke-dashoffset="0" stroke-linecap="butt" stroke-linejoin="miter" stroke-miterlimit="4" stroke-opacity="1" stroke-width="1" d="M 5.7924114,1040.3622 5,1041.1788 l 6,6.1834 6,-6.1834 -0.792412,-0.8166 L 11,1045.7289 5.7924114,1040.3622 Z" baseline-shift="baseline" clip-rule="nonzero" color="#000" color-interpolation="sRGB" color-interpolation-filters="linearRGB" color-rendering="auto" direction="ltr" display="inline" enable-background="accumulate" font-family="sans-serif" font-size="medium" font-stretch="normal" font-style="normal" font-variant="normal" font-weight="normal" image-rendering="auto" letter-spacing="normal" opacity="1" overflow="visible" shape-rendering="auto" text-anchor="start" text-decoration="none" text-rendering="auto" visibility="visible" word-spacing="normal" writing-mode="lr-tb" style="line-height:normal;text-indent:0;text-align:start;text-decoration-line:none;text-decoration-style:solid;text-decoration-color:#000;text-transform:none;block-progression:tb;white-space:normal;isolation:auto;mix-blend-mode:normal;solid-color:#000;solid-opacity:1"/></g></g></g></svg>