<svg xmlns="http://www.w3.org/2000/svg" xmlns:svg="http://www.w3.org/2000/svg" id="svg3869" width="24" height="24" version="1.1"><defs id="defs3871"><linearGradient id="linearGradient3257"><stop id="stop3259" offset="0" stop-color="#a50000" stop-opacity="1"/><stop id="stop3261" offset="1" stop-color="#e73800" stop-opacity="1"/></linearGradient></defs><metadata id="metadata3874"/><g id="layer1" transform="translate(-326,-532.3622)"><g id="layer1-9" transform="translate(327,-497)"><path id="rect4127" fill="#4d4d4d" fill-opacity="1" stroke="none" d="m 3,3 0,1 0,15 1,0 9,0 0,-1 -9,0 0,-8 3,0 L 7,9.99023 7.00781,10 l 2,-2 L 18,8 l 0,5 1,0 0,-8 -6.992188,0 -2,-2 L 10,3.0097656 10,3 4,3 3,3 Z m 13,11 0,2 -2,0 0,1 2,0 0,2 1,0 0,-2 2,0 0,-1 -2,0 0,-2 -1,0 z" transform="translate(0,1030.3622)"/></g></g></svg>