<svg xmlns="http://www.w3.org/2000/svg" viewBox="0 0 24 24"><a transform="translate(1,1)"><g><g fill="#43be80" transform="translate(-421.71429-525.79071)"><path d="m432.71429 528.79032a3.99999 4.00003 0 0 0 -4 4 3.99999 4.00003 0 0 0 4 4 3.99999 4.00003 0 0 0 4 -4 3.99999 4.00003 0 0 0 -4 -4m0 1a3 3.00003 0 0 1 3 3 3 3.00003 0 0 1 -3 3 3 3.00003 0 0 1 -3 -3 3 3.00003 0 0 1 3 -3"/><path d="M11 12A7.99995 8.00003 0 0 0 3.072266 19H4.080078A6.99996 7.00003 0 0 1 11 13 6.99996 7.00003 0 0 1 12 13.08008V12.07031A7.99995 8.00003 0 0 0 11 12" transform="translate(421.71429 525.79071)"/><circle cx="437.214" cy="541.291" r="3.5"/></g><path fill="#fff" fill-rule="evenodd" d="m438.71428 539.79074l1 1-3 3-2-2 1-1 1 1z" transform="translate(-421.71429-525.79071)"/></g></a></svg>