<svg xmlns="http://www.w3.org/2000/svg" xmlns:svg="http://www.w3.org/2000/svg" id="svg3869" width="24" height="24" version="1.1"><defs id="defs3871"><linearGradient id="linearGradient4066"><stop id="stop4068" offset="0" stop-color="#dbc9ee" stop-opacity="1"/><stop id="stop4070" offset="1" stop-color="#faf7fd" stop-opacity="1"/></linearGradient><linearGradient id="linearGradient3843-5"><stop id="stop3845-0" offset="0" stop-color="#5a2c8b" stop-opacity="1"/><stop id="stop3847-4" offset="1" stop-color="#9d59cf" stop-opacity="1"/></linearGradient></defs><metadata id="metadata3874"/><g id="layer1" transform="translate(-326,-532.3622)"><g id="layer1-1" transform="translate(-226.72253,-49.75706)"><path id="rect4112" fill="#4d4d4d" fill-opacity="1" stroke="none" d="M 6,3 6,5 3,5 3,6 6,6 6,8 10,8 10,7 7,7 7,4 10,4 10,3 6,3 Z m 6,0 0,1 3,0 0,3 -3,0 0,1 4,0 0,-2 3,0 0,-1 -3,0 0,-2 -4,0 z m -2,2 0,1 2,0 0,-1 -2,0 z m 6,9 0,2 -2,0 0,1 2,0 0,2 1,0 0,-2 2,0 0,-1 -2,0 0,-2 -1,0 z" opacity="1" transform="translate(553.72253,583.11926)"/></g></g></svg>