<svg xmlns="http://www.w3.org/2000/svg" xmlns:svg="http://www.w3.org/2000/svg" xmlns:xlink="http://www.w3.org/1999/xlink" id="svg3760" width="24" height="24" version="1.1"><defs id="defs3762"><linearGradient id="linearGradient4300-8"><stop id="stop4302-5" offset="0" stop-color="#f27935" stop-opacity="1"/><stop id="stop4304-7" offset="1" stop-color="#f2784b" stop-opacity="1"/></linearGradient><linearGradient id="linearGradient4357" x1="47" x2="47" y1="61" y2="47" gradientUnits="userSpaceOnUse" xlink:href="#linearGradient4351"/><linearGradient id="linearGradient4410"><stop id="stop4412" offset="0" stop-color="#383e51" stop-opacity="1"/><stop id="stop4414" offset="1" stop-color="#655c6f" stop-opacity="0"/></linearGradient><linearGradient id="linearGradient4427" x1="54" x2="40" y1="31" y2="17" gradientTransform="matrix(1,0,0,-1,-14,78)" gradientUnits="userSpaceOnUse" xlink:href="#linearGradient4410"/><linearGradient id="linearGradient4306" x1="32" x2="32" y1="61" y2="3" gradientUnits="userSpaceOnUse" xlink:href="#linearGradient4300-8"/><linearGradient id="linearGradient4351"><stop id="stop4353" offset="0" stop-color="#f7ab89" stop-opacity="1"/><stop id="stop4355" offset="1" stop-color="#f9bda3" stop-opacity="1"/></linearGradient><linearGradient id="linearGradient3444" x1="54" x2="40" y1="31" y2="17" gradientTransform="matrix(1,0,0,-1,503.93261,656.69754)" gradientUnits="userSpaceOnUse" xlink:href="#linearGradient4410"/><linearGradient id="linearGradient3447" x1="47" x2="47" y1="61" y2="47" gradientTransform="translate(517.93261,578.69754)" gradientUnits="userSpaceOnUse" xlink:href="#linearGradient4351"/><linearGradient id="linearGradient3452" x1="32" x2="32" y1="61" y2="3" gradientTransform="translate(517.93261,578.69754)" gradientUnits="userSpaceOnUse" xlink:href="#linearGradient4300-8"/><clipPath id="clipPath16" clipPathUnits="userSpaceOnUse"><path id="path18" d="m 0,706.465 1490.926,0 L 1490.926,0 0,0 0,706.465 Z"/></clipPath><clipPath id="clipPath24" clipPathUnits="userSpaceOnUse"><path id="path26" d="m 22.1953,686.117 1447.7347,0 0,-667.1902 -1447.7347,0 L 22.1953,686.117 Z"/></clipPath></defs><metadata id="metadata3765"/><g id="layer1" transform="translate(-550.28571,-606.64789)"><path id="rect5234" fill="#da4453" fill-opacity="1" fill-rule="nonzero" stroke="none" stroke-width="2" d="m 565.28571,622.4811 1.66667,1.66672 -1.66667,1.66665 0.83333,0.83332 1.66667,-1.66657 1.66667,1.66657 0.83333,-0.83332 -1.66666,-1.66665 1.66666,-1.66672 -0.83333,-0.83332 -1.66667,1.66672 -1.66667,-1.66672 -0.83333,0.83332 z" color="#000" display="inline" enable-background="accumulate" overflow="visible" visibility="visible" style="marker:none"/><path id="path4231" fill="#4d4d4d" fill-rule="evenodd" stroke="none" stroke-linecap="butt" stroke-linejoin="miter" stroke-opacity="1" stroke-width="1" d="M 10 4 L 4 6 L 6 12 L 14 16 L 14 15.875 L 14 14 L 15 14 L 17.5 14 L 20 9 L 10 4 z M 4 6 L 4 12 L 12 20 L 14.705078 17.294922 L 5 12 L 4 6 z M 7.5 6 C 8.331 6 9 6.669 9 7.5 C 9 8.331 8.331 9 7.5 9 C 6.669 9 6 8.331 6 7.5 C 6 6.669 6.669 6 7.5 6 z" transform="translate(550.28571,606.64789)"/></g></svg>