<svg xmlns="http://www.w3.org/2000/svg" xmlns:svg="http://www.w3.org/2000/svg" id="svg3869" width="24" height="24" version="1.1"><defs id="defs3871"><linearGradient id="linearGradient3257"><stop id="stop3259" offset="0" stop-color="#a50000" stop-opacity="1"/><stop id="stop3261" offset="1" stop-color="#e73800" stop-opacity="1"/></linearGradient><clipPath id="clipPath4210" clipPathUnits="userSpaceOnUse"><rect id="rect4212" width="34" height="34" x="-7" y="1024.362" fill="#00f" fill-opacity=".514" stroke="none" stroke-opacity="1" opacity="1"/></clipPath><clipPath id="clipPath4160" clipPathUnits="userSpaceOnUse"><rect id="rect4162" width="32" height="32" x="-6" y="1028.362" fill="#aade87" fill-opacity=".472" stroke="none" stroke-opacity="1" opacity="1"/></clipPath></defs><metadata id="metadata3874"/><g id="layer1" transform="translate(-326,-532.3622)"><g id="layer1-4" transform="translate(-217.57141,-209.57139)"><path id="path4162" fill="#4d4d4d" fill-opacity="1" stroke="none" d="m 547.57141,745.93359 0,1 0,3 1,0 0,-3 3,0 0,-1 -3,0 z" opacity="1"/><path id="path4118" fill="#4d4d4d" fill-opacity="1" stroke="none" d="M 5,5 5,17 17,17 17,5 5,5 Z M 6,6 16,6 16,16 6,16 6,6 Z" opacity="1" transform="translate(544.57141,742.93359)"/><path id="rect4134" fill="#4d4d4d" fill-opacity="1" stroke="none" d="m 562.57141,757.93359 0,3 -3,0 0,1 4,0 0,-1 0,-3 z" opacity="1"/><path id="path4170" fill="#4d4d4d" fill-opacity="1" stroke="none" d="m 563.57141,745.93359 0,1 0,3 -1,0 0,-3 -3,0 0,-1 3,0 z" opacity="1"/><path id="path4172" fill="#4d4d4d" fill-opacity="1" stroke="none" d="m 548.57141,757.93359 0,3 3,0 0,1 -4,0 0,-1 0,-3 z" opacity="1"/></g></g></svg>