<svg xmlns="http://www.w3.org/2000/svg" xmlns:svg="http://www.w3.org/2000/svg" id="svg952" width="22" height="22" version="1.1"><metadata id="metadata957"/><g id="layer1" transform="translate(0,-1030.3622)"><path id="path4146" fill="#4d4d4d" fill-opacity="1" stroke="none" stroke-linecap="butt" stroke-linejoin="miter" stroke-opacity="1" stroke-width="1" d="m 15.29286,1043.4247 0.707107,-0.7071 6.000032,6 -0.707075,0.7071 z"/><path id="rect4095" fill="#4d4d4d" fill-opacity="1" stroke="none" d="m 12,1033.4247 c -3.3240048,0 -6,2.676 -6,6 0,3.324 2.6759952,6 6,6 3.324005,0 6,-2.676 6,-6 0,-3.324 -2.675995,-6 -6,-6 z m 0,1 c 2.770005,0 5,2.23 5,5 0,2.77 -2.229995,5 -5,5 -2.770005,0 -5,-2.23 -5,-5 0,-2.77 2.229995,-5 5,-5 z"/></g></svg>