<svg xmlns="http://www.w3.org/2000/svg" xmlns:svg="http://www.w3.org/2000/svg" id="svg3869" width="24" height="24" version="1.1"><defs id="defs3871"><linearGradient id="linearGradient3257"><stop id="stop3259" offset="0" stop-color="#a50000" stop-opacity="1"/><stop id="stop3261" offset="1" stop-color="#e73800" stop-opacity="1"/></linearGradient></defs><metadata id="metadata3874"/><g id="layer1" transform="translate(-326,-532.3622)"><g id="layer1-3" transform="translate(331,-497)"><path id="path4146" fill="#f2f2f2" fill-opacity="1" stroke="none" stroke-linecap="butt" stroke-linejoin="miter" stroke-opacity="1" stroke-width="1" d="m 12.29286,1043.3622 0.707107,-0.7071 6.000032,6 -0.707075,0.7071 z"/><path id="rect4095" fill="#f2f2f2" fill-opacity="1" stroke="none" d="M 9,3 C 5.6759952,3 3,5.6759952 3,9 c 0,3.324005 2.6759952,6 6,6 3.324005,0 6,-2.675995 6,-6 C 15,5.6759952 12.324005,3 9,3 Z m 0,1 c 2.770005,0 5,2.2299952 5,5 0,2.770005 -2.229995,5 -5,5 C 6.2299952,14 4,11.770005 4,9 4,6.2299952 6.2299952,4 9,4 Z" transform="translate(0,1030.3622)"/></g></g></svg>