<svg xmlns="http://www.w3.org/2000/svg" id="svg2" width="48" height="48" version="1.0" viewBox="0 0 48 48" xml:space="preserve"><metadata id="metadata32"/><rect id="rect2400" width="48" height="48" x="0" y="0" fill="none"/><rect id="rect3174" width="32" height="40" x="7" y="4" fill="#fff" stroke="#fff" stroke-linejoin="round" stroke-width="8" ry="3.453"/><rect id="rect3172" width="32" height="40" x="7" y="4" ry="3.453"/><path id="path13" fill="#fff" d="m36 7h-26v34h26v-34z"/><g id="g3176" transform="matrix(.99465 0 0 .97382 .14108 .90381)"><path id="path7" fill="none" stroke="#fff" stroke-linejoin="round" stroke-width="12.765" d="m38.7 30.4l-13.7-13.7-7.7-3 2.7 8.7 13.3 13.4 5.4-5.4z"/><g id="Layer_x0020_4" stroke="#000"><path id="path16" fill="none" stroke-linejoin="round" stroke-width="4.971" d="m38.7 30.4l-13.7-13.7-7.7-3 2.7 8.7 13.3 13.4 5.4-5.4z"/><path id="path18" d="m38.7 30.4l-13.7-13.7-7.7-3 2.7 8.7 13.3 13.4 5.4-5.4z"/><path id="path20" d="m20.6 14.7l-2.5 2.5-1.1-3.8 3.6 1.3z"/><path id="path22" fill="none" stroke-width="1.243" d="m19.6 22.2l3-0.3 2.4-2.4 0.4-2.8"/><path id="path24" fill="#fff" d="m20.4 14.9l-2.1 2.1 1.6 5.2 2.7-0.3 2.4-2.4 0.3-2.4-5-2.2h0.1z"/></g></g><g id="crop" stroke="#000"><path id="path27" fill="none" d="m48 48h-48v-48h48v48z"/></g></svg>